<svg xmlns="http://www.w3.org/2000/svg" width="128" height="128" viewBox="0 0 128 128">
  <rect x="6" y="6" width="116" height="116" rx="26" fill="#0B0B0C"/>
  <!-- document -->
  <rect x="34" y="28" width="52" height="66" rx="6" fill="#ffffff"/>
  <rect x="42" y="40" width="30" height="4" rx="2" fill="#c9c9ce"/>
  <rect x="42" y="50" width="30" height="4" rx="2" fill="#c9c9ce"/>
  <rect x="42" y="60" width="20" height="4" rx="2" fill="#c9c9ce"/>
  <!-- signature stroke -->
  <path d="M40 82 q10 -14 18 -2 q6 9 14 -1 q5 -6 12 2" fill="none" stroke="#0B0B0C" stroke-width="4" stroke-linecap="round"/>
  <!-- pen -->
  <g transform="rotate(40 92 92)">
    <rect x="86" y="52" width="10" height="44" rx="3" fill="#6E6E73"/>
    <path d="M86 96 l5 10 l5 -10 z" fill="#0B0B0C"/>
    <rect x="86" y="48" width="10" height="8" rx="2" fill="#0B0B0C"/>
  </g>
</svg>
